<svg width="180" height="180" viewBox="0 0 180 180" fill="none" xmlns="http://www.w3.org/2000/svg">
  <defs>
    <linearGradient id="glass1" x1="0" y1="0" x2="1" y2="1">
      <stop offset="0%" stop-color="#fff" stop-opacity="0.7"/>
      <stop offset="100%" stop-color="#cfd8e6" stop-opacity="0.3"/>
    </linearGradient>
    <linearGradient id="glass2" x1="1" y1="0" x2="0" y2="1">
      <stop offset="0%" stop-color="#fff" stop-opacity="0.7"/>
      <stop offset="100%" stop-color="#cfd8e6" stop-opacity="0.3"/>
    </linearGradient>
    <filter id="glow" x="-20%" y="-20%" width="140%" height="140%">
      <feGaussianBlur stdDeviation="4" result="blur"/>
      <feMerge>
        <feMergeNode in="blur"/>
        <feMergeNode in="SourceGraphic"/>
      </feMerge>
    </filter>
  </defs>
  <!-- Top polygon -->
  <polygon
    points="45,30 135,30 90,90 45,150 45,90 90,90"
    fill="url(#glass1)"
    stroke="#fff"
    stroke-width="2.5"
    filter="url(#glow)"
    opacity="0.85"
  />
  <!-- Bottom polygon -->
  <polygon
    points="135,150 45,150 90,90 135,30 135,90 90,90"
    fill="url(#glass2)"
    stroke="#fff"
    stroke-width="2.5"
    filter="url(#glow)"
    opacity="0.85"
  />
  <!-- Inner highlight for glass effect -->
  <polygon
    points="55,45 125,45 90,90 55,135 55,90 90,90"
    fill="#fff"
    opacity="0.10"
  />
  <polygon
    points="125,135 55,135 90,90 125,45 125,90 90,90"
    fill="#fff"
    opacity="0.10"
  />
</svg>